# xmcd
#
# Track frame offsets:
#	150
#	13734
#	27786
#	41515
#	59156
#	80686
#	100431
#	117478
#	134298
#	152278
#	168994
#	187805
#
# Disc length: 2719 seconds
#
# Revision: 2
# Processed by: cddbd v1.5.1PL2 Copyright (c) Steve Scherf et al.
# Submitted via: EasyCDDAExtractor 9.0.0.1
#
DISCID=980a9d0c
DTITLE=Motörhead - Kiss Of Death
DYEAR=2006
DGENRE=Hard Rock
TTITLE0=Sucker
TTITLE1=One Night Stand
TTITLE2=Devil I Know
TTITLE3=Trigger
TTITLE4=Under The Gun
TTITLE5=God Was Never On Your Side
TTITLE6=Living In The Past
TTITLE7=Christine
TTITLE8=Sword Of Glory
TTITLE9=Be My Baby
TTITLE10=Kingdom Of The Worm
TTITLE11=Going Down
EXTD=
EXTT0=
EXTT1=
EXTT2=
EXTT3=
EXTT4=
EXTT5=
EXTT6=
EXTT7=
EXTT8=
EXTT9=
EXTT10=
EXTT11=
PLAYORDER=
